<svg xmlns="http://www.w3.org/2000/svg" viewBox="0 0 161.77 59.25"><defs><style>.cls-1{fill:#0286c2;}.cls-2{fill:#00a0e9;}.cls-3{fill:#fff;}</style></defs><title>btn_link</title><g id="圖層_2" data-name="圖層 2"><g id="圖層_1-2" data-name="圖層 1"><rect class="cls-1" y="5.43" width="161.77" height="53.82" rx="17.63"/><rect class="cls-2" width="161.77" height="53.82" rx="17.63"/><path class="cls-3" d="M42.32,23.61a.48.48,0,0,1-.07-.26.58.58,0,0,1,0-.19.54.54,0,0,1,.31-.32.74.74,0,0,1,.25-.05.59.59,0,0,1,.23,0,.73.73,0,0,1,.39.32A13.44,13.44,0,0,0,44.78,25a13.15,13.15,0,0,0,1.6,1.64.68.68,0,0,1,.22.5.63.63,0,0,1-.19.46.74.74,0,0,1-.49.24h-.06a.64.64,0,0,1-.45-.18L45,27.21h0s0,0,0,0c0,.2,0,.33,0,.41-.08,1.95-.18,3.34-.29,4.17a3.4,3.4,0,0,1-.48,1.63,1.27,1.27,0,0,1-.43.36,2.77,2.77,0,0,1-.61.16l-.78,0h-.55a.71.71,0,0,1-.46-.19,1.19,1.19,0,0,1-.3-.45A.44.44,0,0,1,41,33a.34.34,0,0,1,.32-.15c.42,0,.8,0,1.15,0a.71.71,0,0,0,.55-.19,2.49,2.49,0,0,0,.35-1.21c.09-.66.16-1.7.23-3.13,0-.06,0-.08-.09-.08H40.79c-.06,0-.09,0-.1.08a12.92,12.92,0,0,1-.25,1.34A7.89,7.89,0,0,1,40,30.9,5.28,5.28,0,0,1,38.32,33a7.06,7.06,0,0,1-1.4.82.71.71,0,0,1-.28.06.59.59,0,0,1-.23-.05.82.82,0,0,1-.42-.32.46.46,0,0,1-.1-.28.53.53,0,0,1,0-.13.44.44,0,0,1,.27-.31,5.88,5.88,0,0,0,1.22-.68,4.89,4.89,0,0,0,.87-.81,4.57,4.57,0,0,0,.58-.93,5.79,5.79,0,0,0,.36-1,10.58,10.58,0,0,0,.2-1.08c0-.06,0-.08-.07-.08H37.78a.73.73,0,0,1-.73-.73v-.15a.05.05,0,0,0,0,0H37a7.11,7.11,0,0,1-.56.53A.64.64,0,0,1,36,28h-.05a.8.8,0,0,1-.5-.21.54.54,0,0,1-.18-.42.54.54,0,0,1,.21-.44,10.53,10.53,0,0,0,2.94-3.71.8.8,0,0,1,.38-.39.81.81,0,0,1,.31-.06l.2,0a.5.5,0,0,1,.35.31.39.39,0,0,1,.07.23.43.43,0,0,1-.07.23A13.56,13.56,0,0,1,37.27,27s0,0,0,.05,0,0,0,0h7.44s0,0,0,0,0,0,0-.05A19.13,19.13,0,0,1,42.32,23.61Z"/><path class="cls-3" d="M58.72,30.68a.52.52,0,0,1,.36.14.48.48,0,0,1,.14.36.46.46,0,0,1-.14.35.52.52,0,0,1-.36.14H54.28c-.07,0-.1,0-.1.1v1.15a1.25,1.25,0,0,1-.15.68.87.87,0,0,1-.53.33,8.39,8.39,0,0,1-1.86.14.73.73,0,0,1-.42-.14,1,1,0,0,1-.28-.35.35.35,0,0,1,0-.33.29.29,0,0,1,.28-.13h1.39a.51.51,0,0,0,.24-.06.22.22,0,0,0,.07-.19v-1.1c0-.07,0-.1-.1-.1H48.48a.52.52,0,0,1-.36-.14.47.47,0,0,1-.15-.35.49.49,0,0,1,.15-.36.52.52,0,0,1,.36-.14h4.39c.05,0,.07,0,.07-.07v-.05a.53.53,0,0,1,.52-.53l.14,0a14.5,14.5,0,0,0,1.62-.6l0,0,0,0H49.64a.42.42,0,0,1-.33-.14.47.47,0,0,1,.33-.8H57.1a.51.51,0,0,1,.32.12l.2.16a.37.37,0,0,1,.12.31.3.3,0,0,1-.17.27,16.76,16.76,0,0,1-3.38,1.38s0,0,0,0h4.54Zm-.2-7.25a.51.51,0,0,1,0,1H48.63a.51.51,0,0,1,0-1h4.2c.07,0,.1,0,.1-.09V23a.59.59,0,0,1,.18-.44.58.58,0,0,1,.43-.18.57.57,0,0,1,.43.18.55.55,0,0,1,.18.44v.31c0,.06,0,.09.1.09ZM57.62,27a.7.7,0,0,1-.22.52.69.69,0,0,1-.51.21H50.38a.72.72,0,0,1-.52-.21.73.73,0,0,1-.21-.52V25.88a.69.69,0,0,1,.21-.51.73.73,0,0,1,.52-.22h6.51a.7.7,0,0,1,.51.22.67.67,0,0,1,.22.51ZM50.9,26c-.06,0-.08,0-.08.09v.78c0,.06,0,.09.08.09h5.38a.08.08,0,0,0,.09-.09v-.78a.08.08,0,0,0-.09-.09Z"/><path class="cls-3" d="M63.57,27.19a.37.37,0,0,1,0-.31.35.35,0,0,1,.21-.23.47.47,0,0,1,.35,0,.49.49,0,0,1,.27.22,10.55,10.55,0,0,1,.81,1.79.48.48,0,0,1,0,.37.55.55,0,0,1-.28.28.38.38,0,0,1-.33,0,.39.39,0,0,1-.22-.25.52.52,0,0,0-.06-.16.11.11,0,0,0-.1-.08l-.65.05c-.06,0-.09,0-.09.1v4.58a.49.49,0,0,1-.16.37.47.47,0,0,1-.37.16.5.5,0,0,1-.37-.16.51.51,0,0,1-.15-.37V29c0-.06,0-.09-.1-.09L61,29h0a.49.49,0,0,1-.34-.14.48.48,0,0,1-.19-.4.42.42,0,0,1,.13-.31.46.46,0,0,1,.34-.18h.27a.19.19,0,0,0,.15-.08c.25-.33.46-.61.62-.85a.15.15,0,0,0,0-.16,11.92,11.92,0,0,0-1.17-1.36.53.53,0,0,1-.17-.35.51.51,0,0,1,.1-.36l0-.06a.35.35,0,0,1,.26-.16.39.39,0,0,1,.29.09s0,0,.06,0a18.23,18.23,0,0,0,.82-1.73.55.55,0,0,1,.29-.31.64.64,0,0,1,.23-.05.43.43,0,0,1,.19,0,.53.53,0,0,1,.29.3.88.88,0,0,1,0,.17.5.5,0,0,1,0,.23c-.43.82-.81,1.47-1.12,1.94a.11.11,0,0,0,0,.15c.2.22.36.4.48.56s.08,0,.11,0c.34-.56.65-1.1.92-1.61a.52.52,0,0,1,.31-.27A.42.42,0,0,1,64,24a.53.53,0,0,1,.24.06.48.48,0,0,1,.25.29.77.77,0,0,1,0,.15.39.39,0,0,1-.07.23C63.7,26,63,27,62.35,27.84v.05a.05.05,0,0,0,0,0l1.4-.06a.1.1,0,0,0,.05,0,.06.06,0,0,0,0-.06C63.75,27.55,63.66,27.37,63.57,27.19Zm-2.63,3a.45.45,0,0,1,.2-.32.48.48,0,0,1,.37-.09.61.61,0,0,1,.34.21.6.6,0,0,1,.08.29v.1a11.72,11.72,0,0,1-.58,2.26.38.38,0,0,1-.26.25.44.44,0,0,1-.37,0,.51.51,0,0,1-.26-.28.47.47,0,0,1,0-.37A10.62,10.62,0,0,0,60.94,30.16Zm2.9.09a.38.38,0,0,1,0-.33.45.45,0,0,1,.25-.22.47.47,0,0,1,.35,0,.49.49,0,0,1,.25.26,12.83,12.83,0,0,1,.5,1.42.46.46,0,0,1,0,.36.49.49,0,0,1-.29.24.34.34,0,0,1-.34,0,.41.41,0,0,1-.21-.27C64.18,31.22,64,30.73,63.84,30.25Zm3.62-7.2a.92.92,0,0,1,.83-.49,1,1,0,0,1,.88.47A13.42,13.42,0,0,0,71.79,26a.68.68,0,0,1,.25.44s0,.07,0,.1a.64.64,0,0,1-.12.38.56.56,0,0,1-.4.26l-.1,0a.49.49,0,0,1-.35-.15,18.42,18.42,0,0,1-1.47-1.55,16.35,16.35,0,0,1-1.22-1.62.05.05,0,0,0,0,0,.11.11,0,0,0-.06,0,12.77,12.77,0,0,1-1.18,1.69,13.43,13.43,0,0,1-1.5,1.59.52.52,0,0,1-.33.12h-.09a.58.58,0,0,1-.38-.24.72.72,0,0,1-.11-.37v-.1a.69.69,0,0,1,.24-.42,12.74,12.74,0,0,0,1.39-1.44A11.66,11.66,0,0,0,67.46,23.05Zm-.77,10.82a.53.53,0,0,1-.76,0,.51.51,0,0,1-.16-.38V29.64a.69.69,0,0,1,.21-.51.7.7,0,0,1,.52-.22h4a.67.67,0,0,1,.52.22.69.69,0,0,1,.21.51v3.77a.57.57,0,0,1-.16.41.53.53,0,0,1-.39.16.55.55,0,0,1-.57-.57h0s0-.06-.08-.06H66.94c-.06,0-.09,0-.09.07v.08A.51.51,0,0,1,66.69,33.87Zm-.18-6.45a.53.53,0,0,1-.16-.39.47.47,0,0,1,.16-.37.51.51,0,0,1,.38-.16H70a.49.49,0,0,1,.38.16.5.5,0,0,1,.15.37.56.56,0,0,1-.15.39.53.53,0,0,1-.38.16H66.89A.55.55,0,0,1,66.51,27.42Zm3.6,2.64c0-.06,0-.1-.09-.1H67a.09.09,0,0,0-.1.1v2.13a.09.09,0,0,0,.1.1H70c.06,0,.09,0,.09-.1Z"/><path class="cls-3" d="M75.61,23a.71.71,0,0,1,.31-.33.66.66,0,0,1,.27-.06l.19,0a.54.54,0,0,1,.32.29.59.59,0,0,1,0,.22.48.48,0,0,1,0,.2,21.1,21.1,0,0,1-1,2,.37.37,0,0,0,0,.17v7.92a.56.56,0,0,1-.16.39.57.57,0,0,1-.4.16.53.53,0,0,1-.39-.16.56.56,0,0,1-.16-.39V27.3H74.5a8.61,8.61,0,0,1-.58.74.41.41,0,0,1-.32.17l-.08,0a.4.4,0,0,1-.35-.24.89.89,0,0,1-.12-.45s0-.08,0-.11a.85.85,0,0,1,.23-.52A13.89,13.89,0,0,0,75.61,23ZM83.41,26c0-.07,0-.1-.08-.1H81.45c-.06,0-.09,0-.09.1v6.71a1.84,1.84,0,0,1-.12.74.78.78,0,0,1-.39.41,2.71,2.71,0,0,1-1.12.22h0a.66.66,0,0,1-.44-.16.86.86,0,0,1-.31-.43.38.38,0,0,1,0-.38.34.34,0,0,1,.32-.19H80a.28.28,0,0,0,.18,0,.25.25,0,0,0,0-.17V26c0-.07,0-.1-.09-.1H78.58a.15.15,0,0,0-.14.08,11.84,11.84,0,0,1-.83,1.49.43.43,0,0,1-.37.23h-.07a.56.56,0,0,1-.37-.13.59.59,0,0,1-.22-.4.3.3,0,0,1,0-.1.6.6,0,0,1,.12-.36,11.79,11.79,0,0,0,1.58-3.61.57.57,0,0,1,.27-.37.66.66,0,0,1,.32-.1l.14,0a.53.53,0,0,1,.37.26.48.48,0,0,1,.08.28.41.41,0,0,1,0,.16c-.14.47-.29.93-.46,1.37a.08.08,0,0,0,0,.07l0,0h4.72a.91.91,0,0,1,.33,0l.25.05a.44.44,0,0,1,.27.17.44.44,0,0,1,.07.24.19.19,0,0,1,0,.08c-.11.63-.24,1.26-.37,1.88a.57.57,0,0,1-.22.33.6.6,0,0,1-.29.08h-.1a.49.49,0,0,1-.33-.21.53.53,0,0,1-.09-.3V27C83.31,26.69,83.36,26.34,83.41,26ZM78,28.47a.63.63,0,0,1,.27-.37.58.58,0,0,1,.33-.1h.11a.57.57,0,0,1,.37.25.49.49,0,0,1,.09.28,1,1,0,0,1,0,.15,12.72,12.72,0,0,1-1.32,3.2.52.52,0,0,1-.37.25h-.11A.56.56,0,0,1,77,32a.49.49,0,0,1-.25-.34.62.62,0,0,1,0-.13.59.59,0,0,1,.09-.31A10,10,0,0,0,78,28.47Zm4.31.16a.54.54,0,0,1,0-.21.49.49,0,0,1,0-.19.43.43,0,0,1,.29-.27.78.78,0,0,1,.21,0A.69.69,0,0,1,83,28a.61.61,0,0,1,.32.31,16.72,16.72,0,0,1,1.13,3.08.81.81,0,0,1,0,.16.68.68,0,0,1-.08.31.7.7,0,0,1-.37.31.39.39,0,0,1-.18,0,.52.52,0,0,1-.25-.08.57.57,0,0,1-.26-.34A16.06,16.06,0,0,0,82.3,28.63Z"/><path class="cls-3" d="M91.22,28.64a.73.73,0,0,1-.73.73H87.67c-.07,0-.1,0-.1.1a10.39,10.39,0,0,1-.83,4.08.41.41,0,0,1-.32.24h-.07a.52.52,0,0,1-.33-.12.69.69,0,0,1-.24-.39,1,1,0,0,1,0-.16.66.66,0,0,1,.07-.3,10.8,10.8,0,0,0,.64-4.2V26a.69.69,0,0,1,.21-.51.7.7,0,0,1,.52-.22h3.29a.73.73,0,0,1,.73.73ZM91,23.08a.55.55,0,0,1,.54.54.51.51,0,0,1-.16.38.52.52,0,0,1-.38.15H86.58a.51.51,0,0,1-.53-.53.52.52,0,0,1,.15-.38.51.51,0,0,1,.38-.16Zm-.9,3.38a.08.08,0,0,0-.09-.09h-2.3c-.07,0-.1,0-.1.09v1.76c0,.06,0,.09.1.09H90a.08.08,0,0,0,.09-.09Zm6.81.21a.54.54,0,0,1,.39.17.54.54,0,0,1,.17.4.58.58,0,0,1-.56.56h-.62c-.05,0-.08,0-.08.1v5.55a.54.54,0,0,1-.18.42.54.54,0,0,1-.42.17.57.57,0,0,1-.42-.17.57.57,0,0,1-.17-.42V27.9c0-.07,0-.1-.09-.1H93.22a.08.08,0,0,0-.09.09,9.58,9.58,0,0,1-1.79,5.69.48.48,0,0,1-.37.17h0a.69.69,0,0,1-.41-.17.62.62,0,0,1-.2-.4.22.22,0,0,1,0-.08.52.52,0,0,1,.12-.33,6.54,6.54,0,0,0,.82-1.37,7.6,7.6,0,0,0,.47-1.54c.1-.53.16-1,.2-1.44s0-.89,0-1.41V24.32a.55.55,0,0,1,.21-.44.51.51,0,0,1,.34-.14.4.4,0,0,1,.15,0l.1,0a.31.31,0,0,0,.19,0,18.75,18.75,0,0,0,2.63-.92,1.06,1.06,0,0,1,.46-.1h.12a1.07,1.07,0,0,1,.55.22.45.45,0,0,1,.14.33v.06a.39.39,0,0,1-.24.34,25.26,25.26,0,0,1-3.42,1.07s-.08.05-.08.12v1.67c0,.06,0,.09.08.09Z"/><path class="cls-3" d="M109.62,24.16l.17.16v.23a.48.48,0,0,1-.17.39.52.52,0,0,1-.38.16h-6.13a.14.14,0,0,0-.12.09c-.16.34-.36.71-.58,1.1a0,0,0,0,0,0,.05,0,0,0,0,0,0,0h5.14a.72.72,0,0,1,.73.72v5.58a1.78,1.78,0,0,1-.13.77.8.8,0,0,1-.45.41,5.34,5.34,0,0,1-1.61.18.67.67,0,0,1-.45-.16.89.89,0,0,1-.29-.42.38.38,0,0,1,0-.37.33.33,0,0,1,.32-.16h1.13a.3.3,0,0,0,.22-.06.25.25,0,0,0,.06-.2v-1c0-.07,0-.1-.1-.1h-4.76a.09.09,0,0,0-.1.1v1.79a.56.56,0,0,1-.16.41.53.53,0,0,1-.41.17.58.58,0,0,1-.59-.58V28.33s0,0,0,0,0,0,0,0a10.45,10.45,0,0,1-1.36,1.31.57.57,0,0,1-.35.12h-.08a.59.59,0,0,1-.41-.23.56.56,0,0,1-.14-.36.5.5,0,0,1,.21-.43,10.93,10.93,0,0,0,2.81-3.54,0,0,0,0,0,0-.06s0,0,0,0H99.28a.49.49,0,0,1-.38-.16.5.5,0,0,1-.16-.39.55.55,0,0,1,.54-.55h2.83a.14.14,0,0,0,.13-.08c.11-.3.22-.6.32-.91a.64.64,0,0,1,.31-.38.59.59,0,0,1,.32-.09l.15,0a.59.59,0,0,1,.43.54.68.68,0,0,1,0,.19c-.08.24-.15.45-.22.63,0,0,0,0,0,0a.05.05,0,0,0,0,0h5.66A.57.57,0,0,1,109.62,24.16Zm-2.54,4.33c.07,0,.1,0,.1-.08v-.92c0-.07,0-.1-.1-.1h-4.76a.09.09,0,0,0-.1.1v.92c0,.05,0,.08.1.08Zm-4.86,2c0,.05,0,.08.1.08h4.76c.07,0,.1,0,.1-.08v-.92c0-.07,0-.1-.1-.1h-4.76a.09.09,0,0,0-.1.1Z"/><path class="cls-3" d="M118.71,24.29a.09.09,0,0,0,0,.07.07.07,0,0,0,.06,0h2.84a.7.7,0,0,1,.52.21.66.66,0,0,1,.2.49c0,2-.1,4-.3,6a4.74,4.74,0,0,1-.53,2.14,1.39,1.39,0,0,1-.47.42,2.14,2.14,0,0,1-.63.19l-.78,0h-.53a.75.75,0,0,1-.45-.18,1,1,0,0,1-.28-.44.41.41,0,0,1,0-.36.33.33,0,0,1,.31-.14l1.26,0a.64.64,0,0,0,.53-.21,3.83,3.83,0,0,0,.45-1.85c.11-1,.2-2.75.28-5.16a.08.08,0,0,0-.09-.09h-2.8a.14.14,0,0,0-.13.09c-.24.52-.48,1-.73,1.42a.58.58,0,0,1-.43.3h-.14a.63.63,0,0,1-.4-.14l-.26-.17h0a.05.05,0,0,0,0,.05v5a.7.7,0,0,1-.21.52.73.73,0,0,1-.52.21h-2.61a.09.09,0,0,0-.1.1v.34a.5.5,0,0,1-.15.37.49.49,0,0,1-.38.16.52.52,0,0,1-.38-.16.47.47,0,0,1-.16-.37v-8a.67.67,0,0,1,.22-.52.69.69,0,0,1,.51-.21H113a.12.12,0,0,0,.13-.09c.12-.44.22-.88.31-1.32a.6.6,0,0,1,.27-.42.57.57,0,0,1,.36-.13l.11,0a.48.48,0,0,1,.38.26.44.44,0,0,1,.09.27.58.58,0,0,1,0,.18q-.23.63-.42,1.14a.07.07,0,0,0,0,.06s0,0,0,0h1.21a.73.73,0,0,1,.52.21.7.7,0,0,1,.21.52v1.57s0,0,0,0,0,0,0,0a11,11,0,0,0,1.7-3.8.62.62,0,0,1,.27-.37.6.6,0,0,1,.29-.08.32.32,0,0,1,.14,0,.51.51,0,0,1,.36.26.48.48,0,0,1,.09.27.41.41,0,0,1,0,.16C118.93,23.62,118.81,24,118.71,24.29Zm-3.61,1.27c0-.06,0-.09-.1-.09h-2.17c-.06,0-.1,0-.1.09v2.23c0,.05,0,.08.1.08H115c.06,0,.1,0,.1-.08Zm-2.37,6.05c0,.06,0,.09.1.09H115c.06,0,.1,0,.1-.09V29a.09.09,0,0,0-.1-.1h-2.17a.09.09,0,0,0-.1.1Zm7.28-2a.67.67,0,0,1,.08.3,1,1,0,0,1,0,.16.6.6,0,0,1-.27.36.57.57,0,0,1-.28.08l-.14,0a.56.56,0,0,1-.34-.26,23,23,0,0,0-1.27-2,.44.44,0,0,1-.09-.27s0-.07,0-.11a.46.46,0,0,1,.23-.31.63.63,0,0,1,.29-.08l.14,0a.5.5,0,0,1,.36.22C119.26,28.43,119.69,29.06,120,29.58Z"/><path class="cls-3" d="M128.25,23.05a.7.7,0,0,1,.52.22.69.69,0,0,1,.21.51v8.76a1.86,1.86,0,0,1-.1.69.7.7,0,0,1-.37.37,2.77,2.77,0,0,1-1.16.2h0a.68.68,0,0,1-.42-.14,1,1,0,0,1-.27-.39.37.37,0,0,1,0-.35.33.33,0,0,1,.29-.16h.66c.16,0,.23-.08.23-.22v-2.7c0-.06,0-.09-.1-.09h-1.9a.09.09,0,0,0-.1.09,10.56,10.56,0,0,1-.94,3.75.39.39,0,0,1-.32.23h-.11a.53.53,0,0,1-.3-.09.62.62,0,0,1-.25-.34.78.78,0,0,1,0-.16.61.61,0,0,1,.06-.25,7.86,7.86,0,0,0,.72-2.45,24.76,24.76,0,0,0,.17-3V23.78a.75.75,0,0,1,.73-.73Zm-2.39,5.54c0,.07,0,.1.08.1h1.84c.07,0,.1,0,.1-.1V27c0-.07,0-.1-.1-.1H126c-.07,0-.1,0-.1.1v.53C125.88,28,125.87,28.34,125.86,28.59Zm2-4.38a.09.09,0,0,0-.1-.1H126a.09.09,0,0,0-.1.1v1.56c0,.06,0,.09.1.09h1.8c.07,0,.1,0,.1-.09ZM134,23.05a.73.73,0,0,1,.72.73v8.77a2,2,0,0,1-.11.77.75.75,0,0,1-.4.4,3.52,3.52,0,0,1-1.38.21h0a.66.66,0,0,1-.44-.16.8.8,0,0,1-.29-.42.45.45,0,0,1,.07-.37.37.37,0,0,1,.31-.17h.86a.29.29,0,0,0,.21-.08.25.25,0,0,0,.06-.19v-2.7c0-.06,0-.09-.1-.09h-2.18a.1.1,0,0,0-.11.09,9.67,9.67,0,0,1-1.09,3.77.48.48,0,0,1-.34.24h-.11a.64.64,0,0,1-.33-.1.51.51,0,0,1-.24-.35.28.28,0,0,1,0-.13.57.57,0,0,1,.08-.28,6.15,6.15,0,0,0,.58-1.33,7.61,7.61,0,0,0,.33-1.52c.07-.53.11-1,.13-1.41s0-.88,0-1.4V23.78a.7.7,0,0,1,.22-.51.68.68,0,0,1,.51-.22Zm-2.69,5.54c0,.07,0,.1.09.1h2.1c.07,0,.1,0,.1-.1V27c0-.07,0-.1-.1-.1h-2.07c-.06,0-.09,0-.09.1v.32Q131.35,27.93,131.32,28.59Zm2.29-4.38a.09.09,0,0,0-.1-.1h-2.07c-.06,0-.09,0-.09.1v1.56a.08.08,0,0,0,.09.09h2.07c.07,0,.1,0,.1-.09Z"/><path class="cls-3" d="M145.46,27.06l.14,0a.7.7,0,0,1,.25.05l.2.09a.45.45,0,0,1,.25.24.43.43,0,0,1,0,.35,8.79,8.79,0,0,1-2.16,3.69s0,.08,0,.11a10.5,10.5,0,0,0,3.18,1.24.34.34,0,0,1,.28.26.28.28,0,0,1,0,.15.35.35,0,0,1-.09.23,1,1,0,0,1-.44.37,1,1,0,0,1-.32.06.9.9,0,0,1-.23,0,10.32,10.32,0,0,1-3.35-1.51.14.14,0,0,0-.15,0,11.28,11.28,0,0,1-2.94,1.5.59.59,0,0,1-.23,0,.8.8,0,0,1-.26,0,.83.83,0,0,1-.4-.34.46.46,0,0,1,0-.38.41.41,0,0,1,.27-.26,9.45,9.45,0,0,0,2.67-1.29s.06-.07,0-.11a9.83,9.83,0,0,1-1.85-2.57s0,0,0,0,0,0,0,0a11.32,11.32,0,0,1-2.41,4.27.65.65,0,0,1-.43.17h0a.8.8,0,0,1-.48-.17.57.57,0,0,1-.21-.45.53.53,0,0,1,.15-.36,11.54,11.54,0,0,0,2.94-6.71c0-.06,0-.09-.07-.09h-2.33a.51.51,0,0,1-.4-.17.54.54,0,0,1-.17-.4.56.56,0,0,1,.17-.4.54.54,0,0,1,.4-.17h2.47c.07,0,.1,0,.1-.1,0-.38.07-.82.09-1.31a.6.6,0,0,1,.2-.43.64.64,0,0,1,.44-.17.56.56,0,0,1,.58.57c0,.22,0,.67-.09,1.34,0,.07,0,.1.07.1h5.86a.54.54,0,0,1,.4.17.56.56,0,0,1,.17.4.54.54,0,0,1-.17.4.51.51,0,0,1-.4.17h-6a.09.09,0,0,0-.1.09c-.06.4-.13.84-.22,1.32,0,.07,0,.1.07.1h4.62Zm-.6,1.23a.06.06,0,0,0,0-.06l-.05,0h-3.56a.05.05,0,0,0,0,0,.07.07,0,0,0,0,.06,7.69,7.69,0,0,0,1.86,2.45c.05,0,.09,0,.13,0A7.12,7.12,0,0,0,144.86,28.29Z"/><path class="cls-3" d="M26.42,32a3.26,3.26,0,0,0-2.55,1.3l-5-2.72A3.15,3.15,0,0,0,19,29.52a3,3,0,0,0-.2-1.07l4.95-2.84a3.24,3.24,0,1,0-.7-2,3,3,0,0,0,.2,1.07l-4.94,2.84a3.23,3.23,0,1,0,.06,3.94l5,2.71a3.24,3.24,0,1,0,3-2.2Zm-.13-10.63a2.23,2.23,0,1,1-2.2,2.26A2.24,2.24,0,0,1,26.29,21.38ZM15.82,31.79a2.23,2.23,0,1,1-.06-4.45,2.23,2.23,0,0,1,.06,4.45ZM26.5,37.48a2.23,2.23,0,1,1,2.19-2.26A2.24,2.24,0,0,1,26.5,37.48Z"/></g></g></svg>